<?xml version="1.0" standalone="no"?><!DOCTYPE svg PUBLIC "-//W3C//DTD SVG 1.1//EN" "http://www.w3.org/Graphics/SVG/1.1/DTD/svg11.dtd"><svg t="1586314300725" class="icon" viewBox="0 0 1024 1024" version="1.1" xmlns="http://www.w3.org/2000/svg" p-id="2304" width="250" height="250" xmlns:xlink="http://www.w3.org/1999/xlink"><defs><style type="text/css"></style></defs><path d="M510.54 64c-247.42 0-448 200.58-448 448s200.58 448 448 448 448-200.58 448-448-200.58-448-448-448zM777.2 565.33H563.87v213.33c0 29.33-24 53.33-53.33 53.33s-53.33-24-53.33-53.33V565.33H243.87c-29.33 0-53.33-24-53.33-53.33s24-53.33 53.33-53.33H457.2V245.33c0-29.33 24-53.33 53.33-53.33s53.33 24 53.33 53.33v213.33H777.2c29.33 0 53.33 24 53.33 53.33 0.01 29.34-23.99 53.34-53.33 53.34z" fill="#298DF7" p-id="2305"></path></svg>